<svg xmlns="http://www.w3.org/2000/svg" width="52.069" height="50.786" viewBox="0 0 52.069 50.786"><path d="M26.035,0a26.037,26.037,0,0,0-8.23,50.738c1.3.238,1.777-.566,1.777-1.252,0-.62-.024-2.673-.037-4.847-7.24,1.573-8.77-3.07-8.77-3.07-1.185-3.006-2.89-3.807-2.89-3.807-2.366-1.614.179-1.583.179-1.583a5.464,5.464,0,0,1,3.99,2.682c2.323,3.979,6.1,2.828,7.576,2.161a5.566,5.566,0,0,1,1.653-3.477C15.5,36.888,9.425,34.654,9.425,24.678A10.08,10.08,0,0,1,12.1,17.691a9.378,9.378,0,0,1,.257-6.893s2.183-.7,7.16,2.67a24.646,24.646,0,0,1,13.033,0c4.967-3.372,7.154-2.67,7.154-2.67a9.339,9.339,0,0,1,.261,6.89,10.05,10.05,0,0,1,2.676,6.987c0,10-6.089,12.2-11.889,12.849a6.2,6.2,0,0,1,1.767,4.818c0,3.48-.035,6.286-.035,7.144,0,.693.474,1.5,1.792,1.249A26.039,26.039,0,0,0,26.035,0Z"/></svg>